<svg width="512" height="512" viewBox="0 0 512 512" fill="none" xmlns="http://www.w3.org/2000/svg">
<rect width="512" height="512" rx="256" fill="#1A1A1A"/>
<path d="M94.627 324.483V214.024C94.627 209.207 95.831 204.835 98.2392 200.906C100.647 196.85 103.816 193.618 107.745 191.209C111.801 188.801 116.237 187.597 121.054 187.597H204.896C209.713 187.597 214.149 188.801 218.205 191.209C222.261 193.618 225.493 196.85 227.901 200.906C230.309 204.835 231.513 209.207 231.513 214.024V324.483H206.227V278.474H119.723V324.483H94.627ZM119.723 253.379H206.227V215.165C206.227 214.531 205.974 214.024 205.467 213.644C204.96 213.137 204.389 212.883 203.756 212.883H122.004C121.37 212.883 120.8 213.137 120.293 213.644C119.913 214.024 119.723 214.531 119.723 215.165V253.379Z" fill="white"/>
<path d="M263.623 324.483V187.597H291.19L340.812 246.724L390.243 187.597H418V324.483H392.714V224.1L340.812 285.889L288.719 224.29V324.483H263.623Z" fill="#9F9FA9"/>
</svg>
