<svg width="177" height="24" viewBox="0 0 177 24" fill="none" xmlns="http://www.w3.org/2000/svg">
    <path
        d="M7.696 17V10.028C7.696 9.724 7.772 9.448 7.924 9.2C8.076 8.944 8.276 8.74 8.524 8.588C8.78 8.436 9.06 8.36 9.364 8.36H14.656C14.96 8.36 15.24 8.436 15.496 8.588C15.752 8.74 15.956 8.944 16.108 9.2C16.26 9.448 16.336 9.724 16.336 10.028V17H14.74V14.096H9.28V17H7.696ZM9.28 12.512H14.74V10.1C14.74 10.06 14.724 10.028 14.692 10.004C14.66 9.972 14.624 9.956 14.584 9.956H9.424C9.384 9.956 9.348 9.972 9.316 10.004C9.292 10.028 9.28 10.06 9.28 10.1V12.512ZM17.6793 17V10.04H26.3073C26.6193 10.04 26.8993 10.116 27.1473 10.268C27.3953 10.42 27.5913 10.62 27.7353 10.868C27.8873 11.116 27.9633 11.392 27.9633 11.696V17H26.4033V11.756C26.4033 11.716 26.3873 11.684 26.3553 11.66C26.3233 11.628 26.2873 11.612 26.2473 11.612H23.7633C23.7233 11.612 23.6873 11.628 23.6553 11.66C23.6313 11.684 23.6193 11.716 23.6193 11.756V17H22.0353V11.756C22.0353 11.716 22.0193 11.684 21.9873 11.66C21.9633 11.628 21.9313 11.612 21.8913 11.612H19.3953C19.3553 11.612 19.3193 11.628 19.2873 11.66C19.2633 11.684 19.2513 11.716 19.2513 11.756V17H17.6793ZM30.7839 17C30.4799 17 30.1999 16.924 29.9439 16.772C29.6959 16.62 29.4959 16.42 29.3439 16.172C29.1999 15.924 29.1279 15.648 29.1279 15.344V12.728H34.6239V11.756C34.6239 11.716 34.6079 11.684 34.5759 11.66C34.5519 11.628 34.5199 11.612 34.4799 11.612H29.1279V10.04H34.5399C34.8439 10.04 35.1199 10.116 35.3679 10.268C35.6239 10.42 35.8239 10.62 35.9679 10.868C36.1199 11.116 36.1959 11.392 36.1959 11.696V17H30.7839ZM30.8439 15.428H34.6239V14.144H30.6999V15.284C30.6999 15.324 30.7119 15.36 30.7359 15.392C30.7679 15.416 30.8039 15.428 30.8439 15.428ZM37.355 17V10.04H42.767C43.071 10.04 43.347 10.116 43.595 10.268C43.851 10.42 44.051 10.62 44.195 10.868C44.347 11.116 44.423 11.392 44.423 11.696V17H42.851V11.756C42.851 11.716 42.835 11.684 42.803 11.66C42.779 11.628 42.747 11.612 42.707 11.612H39.071C39.031 11.612 38.995 11.628 38.963 11.66C38.939 11.684 38.927 11.716 38.927 11.756V17H37.355Z"
        fill="white" />
    <path
        d="M49.4025 17V8.36H51.1425L54.2745 12.092L57.3945 8.36H59.1465V17H57.5505V10.664L54.2745 14.564L50.9865 10.676V17H49.4025ZM62.1313 17C61.8273 17 61.5513 16.924 61.3033 16.772C61.0553 16.62 60.8553 16.42 60.7033 16.172C60.5513 15.924 60.4753 15.648 60.4753 15.344V11.696C60.4753 11.392 60.5513 11.116 60.7033 10.868C60.8553 10.62 61.0553 10.42 61.3033 10.268C61.5513 10.116 61.8273 10.04 62.1313 10.04H65.8873C66.1913 10.04 66.4673 10.116 66.7153 10.268C66.9713 10.42 67.1713 10.62 67.3153 10.868C67.4673 11.116 67.5433 11.392 67.5433 11.696V14.312H62.0473V15.284C62.0473 15.324 62.0593 15.36 62.0833 15.392C62.1153 15.416 62.1513 15.428 62.1913 15.428H67.5433V17H62.1313ZM62.0473 12.896H65.9713V11.756C65.9713 11.716 65.9553 11.684 65.9233 11.66C65.8993 11.628 65.8673 11.612 65.8273 11.612H62.1913C62.1513 11.612 62.1153 11.628 62.0833 11.66C62.0593 11.684 62.0473 11.716 62.0473 11.756V12.896ZM68.7378 17V7.76H70.3098V10.04H74.1498C74.4538 10.04 74.7298 10.116 74.9778 10.268C75.2258 10.42 75.4258 10.62 75.5778 10.868C75.7298 11.116 75.8058 11.392 75.8058 11.696V17H74.2338V11.756C74.2338 11.716 74.2178 11.684 74.1858 11.66C74.1618 11.628 74.1298 11.612 74.0898 11.612H70.4538C70.4138 11.612 70.3778 11.628 70.3458 11.66C70.3218 11.684 70.3098 11.716 70.3098 11.756V17H68.7378ZM78.3618 17C78.0578 17 77.7818 16.924 77.5338 16.772C77.2858 16.62 77.0858 16.42 76.9338 16.172C76.7818 15.924 76.7058 15.648 76.7058 15.344V11.696C76.7058 11.392 76.7818 11.116 76.9338 10.868C77.0858 10.62 77.2858 10.42 77.5338 10.268C77.7818 10.116 78.0578 10.04 78.3618 10.04H82.1178C82.4218 10.04 82.6978 10.116 82.9458 10.268C83.2018 10.42 83.4018 10.62 83.5458 10.868C83.6978 11.116 83.7738 11.392 83.7738 11.696V14.312H78.2778V15.284C78.2778 15.324 78.2898 15.36 78.3138 15.392C78.3458 15.416 78.3818 15.428 78.4218 15.428H83.7738V17H78.3618ZM78.2778 12.896H82.2018V11.756C82.2018 11.716 82.1858 11.684 82.1537 11.66C82.1298 11.628 82.0978 11.612 82.0578 11.612H78.4218C78.3818 11.612 78.3458 11.628 78.3138 11.66C78.2898 11.684 78.2778 11.716 78.2778 11.756V12.896ZM84.956 17V11.696C84.956 11.392 85.032 11.116 85.184 10.868C85.336 10.62 85.536 10.42 85.784 10.268C86.04 10.116 86.316 10.04 86.612 10.04H90.476V11.612H86.672C86.632 11.612 86.596 11.628 86.564 11.66C86.54 11.684 86.528 11.716 86.528 11.756V17H84.956ZM93.0456 17C92.7416 17 92.4616 16.924 92.2056 16.772C91.9576 16.62 91.7576 16.42 91.6056 16.172C91.4616 15.924 91.3896 15.648 91.3896 15.344V12.728H96.8856V11.756C96.8856 11.716 96.8696 11.684 96.8376 11.66C96.8136 11.628 96.7816 11.612 96.7416 11.612H91.3896V10.04H96.8016C97.1056 10.04 97.3816 10.116 97.6296 10.268C97.8856 10.42 98.0856 10.62 98.2296 10.868C98.3816 11.116 98.4576 11.392 98.4576 11.696V17H93.0456ZM93.1056 15.428H96.8856V14.144H92.9616V15.284C92.9616 15.324 92.9736 15.36 92.9976 15.392C93.0296 15.416 93.0656 15.428 93.1056 15.428ZM101.12 17C100.816 17 100.54 16.924 100.292 16.772C100.044 16.62 99.8438 16.42 99.6918 16.172C99.5398 15.924 99.4638 15.648 99.4638 15.344V7.748H101.048V15.284C101.048 15.324 101.06 15.36 101.084 15.392C101.116 15.416 101.152 15.428 101.192 15.428H102.524V17H101.12ZM105.116 17C104.812 17 104.536 16.924 104.288 16.772C104.04 16.62 103.84 16.42 103.688 16.172C103.536 15.924 103.46 15.648 103.46 15.344V7.748H105.044V15.284C105.044 15.324 105.056 15.36 105.08 15.392C105.112 15.416 105.148 15.428 105.188 15.428H106.52V17H105.116ZM108.582 19.58V17.996H112.77C112.81 17.996 112.842 17.98 112.866 17.948C112.898 17.924 112.914 17.892 112.914 17.852V17H109.074C108.778 17 108.502 16.924 108.246 16.772C107.998 16.62 107.798 16.42 107.646 16.172C107.494 15.924 107.418 15.648 107.418 15.344V10.064H108.99V15.284C108.99 15.324 109.002 15.36 109.026 15.392C109.058 15.416 109.094 15.428 109.134 15.428H112.77C112.81 15.428 112.842 15.416 112.866 15.392C112.898 15.36 112.914 15.324 112.914 15.284V10.064H114.486V17.924C114.486 18.228 114.414 18.504 114.27 18.752C114.126 19.008 113.926 19.208 113.67 19.352C113.422 19.504 113.146 19.58 112.842 19.58H108.582Z"
        fill="#9F9FA9" />
</svg> 